# xmcd
#
# Track frame offsets: 
#        150
#        9264
#        86230
#        123339
#        176647
#        202486
#        231905
#
# Disc length: 3453 seconds
#
# Revision: 0
# Processed by: cddbd v1.5.2PL0 Copyright (c) Steve Scherf et al.
# Submitted via: ExactAudioCopy v0.95b3
#
DISCID=5d0d7b07
DTITLE=Jimi Hendrix  - 3 Nights At Winterland 6 Cd Box Set - Disc 3 (2
DTITLE=006)
DYEAR=1900
DGENRE=
TTITLE0=Intro
TTITLE1=Are You Experienced
TTITLE2=Voodoo Child (Slight Return)
TTITLE3=Red House
TTITLE4=Foxy Lady
TTITLE5=(This Is America) Star Spangled Banner
TTITLE6=Purple Haze
EXTD=
EXTT0=
EXTT1=
EXTT2=
EXTT3=
EXTT4=
EXTT5=
EXTT6=
PLAYORDER=
